<svg id="Black" xmlns="http://www.w3.org/2000/svg" viewBox="0 0 551.28 478.6"><defs><style>.cls-1{fill:#00eebf;}.cls-2{fill:#2b2977;}.cls-3{fill:#a08cff;}</style></defs><path class="cls-1" d="M305.43,258.25a25.56,25.56,0,0,1-3.73-.3l-.68-.1a12.1,12.1,0,0,1-3.63-.91,11.83,11.83,0,0,1-5-3.62,4.89,4.89,0,0,0-.67-.71c-.15-.15-.31-.29-.45-.45a9.8,9.8,0,0,1-2.13-3.66,21.42,21.42,0,0,1-.78-10.14,18,18,0,0,1,2.07-7,22.92,22.92,0,0,1,6.29-7.38c.53-.37,1-.77,1.56-1.16.81-.61,1.64-1.25,2.53-1.79a38.42,38.42,0,0,1,5.85-2.91,21.74,21.74,0,0,1,2.89-.87l1.29-.33a25.43,25.43,0,0,1,6.22-1h1.08a29.7,29.7,0,0,0,4.31-.27,1.72,1.72,0,0,1,.44-.08.64.64,0,0,1,.31.07,4,4,0,0,0,1.66.26h.71a6.53,6.53,0,0,1,1.05.06,5.21,5.21,0,0,1,.56.13l.84.21,0,.42c0,.61,0,1.21,0,1.8a12.7,12.7,0,0,1-.35,3.64,10.39,10.39,0,0,0-.21,3.13,13.32,13.32,0,0,1-.34,3c-.07.38-.14.76-.2,1.14a2.56,2.56,0,0,1-.11.46,1.41,1.41,0,0,0-.09.39,28.69,28.69,0,0,1-1.27,7.83c-.31,1.15-.62,2.34-.85,3.52a17.94,17.94,0,0,1-2.91,6.45,24.85,24.85,0,0,1-4.79,5.53,22,22,0,0,1-5.73,3.71,15.32,15.32,0,0,1-5.72,1ZM189.81,231.76a14.88,14.88,0,0,1-4.17-.79c-.38-.11-.77-.23-1.16-.33a21.31,21.31,0,0,1-6-2.72,11.14,11.14,0,0,1-1.91-1.59,10.55,10.55,0,0,1-1.39-1.78l-.18-.28a8,8,0,0,1-1.09-2.17l-.25-.88a16.93,16.93,0,0,1-1-6.33,6.08,6.08,0,0,0,0-.74v-.28a17.4,17.4,0,0,1,.61-6c.73-2.44,1.63-5.49,3.75-7.9.45-.51.88-1,1.3-1.59s.92-1.16,1.42-1.72a25.11,25.11,0,0,1,4.9-4,12.38,12.38,0,0,1,3.89-1.62,22.16,22.16,0,0,1,5.33-.69,16.94,16.94,0,0,1,6.71,1.35,34.41,34.41,0,0,1,6.11,3.5,5.25,5.25,0,0,1,1.16,1.07,16.86,16.86,0,0,1,3.77,7.63l0,.21a57,57,0,0,1,.81,5.74,15.1,15.1,0,0,1-1.16,6.27,29.14,29.14,0,0,1-6,9.36A20.31,20.31,0,0,1,197,231a3.14,3.14,0,0,1-.82.2l-1.56.16c-1.45.15-2.94.3-4.41.39Z"/><path class="cls-1" d="M193.92,190.92a16.3,16.3,0,0,1,6.52,1.31,34.14,34.14,0,0,1,6,3.45,4.66,4.66,0,0,1,1.06,1,16.75,16.75,0,0,1,3.67,7.41A55.85,55.85,0,0,1,212,210a14.37,14.37,0,0,1-1.13,6,28.55,28.55,0,0,1-5.91,9.2,19.6,19.6,0,0,1-8.12,5.32,2.79,2.79,0,0,1-.69.17c-2,.2-4,.43-6,.55h-.41a26.71,26.71,0,0,1-11-3.77A9.8,9.8,0,0,1,177,226a9.53,9.53,0,0,1-1.33-1.69,9.12,9.12,0,0,1-1.21-2.31c-.64-2.3-1.42-4.58-1.2-7a9.77,9.77,0,0,0,0-1.07,16.9,16.9,0,0,1,.59-5.82c.81-2.73,1.67-5.46,3.65-7.71.94-1.06,1.76-2.23,2.71-3.31a24.85,24.85,0,0,1,4.81-3.89,11.87,11.87,0,0,1,3.73-1.54,21.23,21.23,0,0,1,5.21-.68m129,25.09.11,0a4.42,4.42,0,0,0,1.86.31h.71a7.94,7.94,0,0,1,1,0c.23,0,.45.11.94.24-.12,1.86.15,3.58-.36,5.33a10.51,10.51,0,0,0-.23,3.29,22.27,22.27,0,0,1-.53,4,6.22,6.22,0,0,0-.21.93c.09,3.89-1.37,7.5-2.11,11.24a17.91,17.91,0,0,1-2.84,6.28,24,24,0,0,1-4.69,5.41,21,21,0,0,1-5.59,3.63,14.85,14.85,0,0,1-5.54,1,24,24,0,0,1-3.66-.3,14.59,14.59,0,0,1-4.17-1,11.49,11.49,0,0,1-4.76-3.46,14.83,14.83,0,0,0-1.17-1.21,9.48,9.48,0,0,1-2-3.48,21,21,0,0,1-.75-9.91,17.69,17.69,0,0,1,2-6.83,22.41,22.41,0,0,1,6.14-7.22c1.37-.95,2.64-2.06,4.07-2.94a39.36,39.36,0,0,1,5.78-2.87,41.3,41.3,0,0,1,4.12-1.18,24.8,24.8,0,0,1,6.1-1,39.88,39.88,0,0,0,5.46-.29,2.29,2.29,0,0,1,.36-.07m-129-26.09h0a22.18,22.18,0,0,0-5.45.71,12.7,12.7,0,0,0-4.05,1.69,25.55,25.55,0,0,0-5,4.05c-.5.57-1,1.17-1.43,1.74s-.84,1.07-1.28,1.57c-2.2,2.5-3.12,5.6-3.86,8.09a18.06,18.06,0,0,0-.63,6.13v.27a5.14,5.14,0,0,1,0,.68,17.36,17.36,0,0,0,1,6.51l.24.87a8.71,8.71,0,0,0,1.16,2.3l.18.29a11.82,11.82,0,0,0,3.45,3.52,21.92,21.92,0,0,0,6.12,2.79l1.15.32a15.24,15.24,0,0,0,4.3.81l.46,0c1.5-.08,3-.23,4.45-.38l1.55-.16a3.67,3.67,0,0,0,.94-.23,20.76,20.76,0,0,0,8.53-5.59,29.39,29.39,0,0,0,6.1-9.52,15.66,15.66,0,0,0,1.19-6.48,57.82,57.82,0,0,0-.82-5.8l0-.2A17.55,17.55,0,0,0,208.3,196a5.83,5.83,0,0,0-1.28-1.17,34.39,34.39,0,0,0-6.19-3.55,17.55,17.55,0,0,0-6.91-1.39Zm129,25.09a1.71,1.71,0,0,0-.46.07h-.06a27.85,27.85,0,0,1-4.23.27h-1.1a25.39,25.39,0,0,0-6.33,1.06l-1.28.33a22.13,22.13,0,0,0-3,.88,40.34,40.34,0,0,0-5.92,3c-.91.56-1.75,1.2-2.57,1.82-.53.4-1,.78-1.55,1.15a23.37,23.37,0,0,0-6.43,7.53,18.48,18.48,0,0,0-2.13,7.2,21.86,21.86,0,0,0,.8,10.37,10.19,10.19,0,0,0,2.23,3.84c.15.16.32.32.48.47a5,5,0,0,1,.6.64,13.44,13.44,0,0,0,8.93,4.73l.67.1a25.32,25.32,0,0,0,3.81.31,15.77,15.77,0,0,0,5.91-1.06,22.2,22.2,0,0,0,5.86-3.79,25.33,25.33,0,0,0,4.89-5.63,18.55,18.55,0,0,0,3-6.63c.23-1.17.54-2.35.84-3.5a28.64,28.64,0,0,0,1.29-8s0-.16.07-.24a3.93,3.93,0,0,0,.13-.52c.06-.38.13-.75.2-1.13a14.18,14.18,0,0,0,.33-3.08,10.34,10.34,0,0,1,.2-3,13,13,0,0,0,.37-3.78c0-.57,0-1.17,0-1.76l.05-.83-.81-.2-.42-.11a4,4,0,0,0-.62-.15,7.46,7.46,0,0,0-1.12-.06h-.71a3.52,3.52,0,0,1-1.45-.22,1.31,1.31,0,0,0-.52-.11Z"/><path class="cls-2" d="M373.5,44.2c2.07.09,4.12.32,6.18.46.79.05,1.59,0,2.63,0,.05.66.11,1,.11,1.44,0,1.76,0,3.52-.08,5.27-.13,2.71-.43,5.42-.45,8.12s-.44,5.21-.36,7.84c.05,2-.1,4-.17,6,0,.72-.05,1.44-.1,2.15-.07,1-.19,1.91-.23,2.86-.1,2.55-.16,5.11-.26,7.67s-.23,5.08-.36,7.61c-.07,1.36-.17,2.7-.26,4,0,.4,0,.8-.07,1.2-.23,4.46.08,8.93-.52,13.38,0,.23,0,.48,0,.72,0,2.07-.07,4.15-.12,6.22,0,.32-.06.64-.08.95-.11,1.43-.19,2.85-.32,4.28-.29,3.09.23,6.22-.41,9.3a2,2,0,0,0,.06.95,2.57,2.57,0,0,1,0,1.4,10,10,0,0,0-.15,1.66c-.19,1.82.27,3.68-.26,5.49.27.87,0,2,1,2.62a3.05,3.05,0,0,0,.62.13c.55,0,1.11,0,1.67,0a19,19,0,0,1,4.51.31,4.55,4.55,0,0,0,1.91,0,7,7,0,0,1,1.89,0c.87.08,1.75.1,2.63.12,1.67,0,3.35.09,5,.06s3.31.08,5,.08c2,0,4-.06,6-.13a18.12,18.12,0,0,0,4.53-.34,1.8,1.8,0,0,1,.95,0,14.62,14.62,0,0,0,5.67,0c1.81-.25,3.64-.36,5.46-.56,2.3-.25,4.6-.48,6.88-.82,2.05-.3,4.08-.72,6.12-1.1.71-.13,1.4-.35,2.11-.44a77,77,0,0,0,11.42-2.41c3.22-.89,6.35-2,9.54-3A26.59,26.59,0,0,0,466,135.8c.21-.11.44-.19.66-.28a22.28,22.28,0,0,0,6-3,3.87,3.87,0,0,1,.82-.51c2.68-1.26,4.88-3.31,7.54-4.6a3.53,3.53,0,0,0,.75-.6c1.55-1.38,3.34-2.47,4.66-4.11,1.43-.82,2.21-2.28,3.36-3.38a54.71,54.71,0,0,0,5.14-5.62c.49-.62.86-1.34,1.38-1.93,2.35-2.66,3.58-6,5.49-8.92.71-2.11,1.8-4,2.56-6.15a53.84,53.84,0,0,0,2.79-8.59,15.83,15.83,0,0,0,.67-2.51,5.23,5.23,0,0,1,.38-1.82,4.36,4.36,0,0,0,.31-.9c.22-1.82.47-3.63.59-5.46a11.83,11.83,0,0,1,.33-3.55,2.54,2.54,0,0,0,0-1.42,14.87,14.87,0,0,1-.26-3.82,56.92,56.92,0,0,0-1.4-11.34A57,57,0,0,0,504,45.08c-.72-1.86-1.7-3.59-2.53-5.39A55.23,55.23,0,0,0,498,34a17,17,0,0,0-3-3.73,43.08,43.08,0,0,0-7.2-8c-2-1.91-4.19-3.68-6.39-5.39a74,74,0,0,0-10.81-6.6,4.68,4.68,0,0,0-1.12-.41,9.18,9.18,0,0,1-2.18-.95,9.52,9.52,0,0,0-3.09-1.25,6.14,6.14,0,0,1-1.34-.48c-1.71-.66-3.41-1.33-5.12-2a1.16,1.16,0,0,0-.68-.15A4,4,0,0,1,455,4.67c-1.15-.28-2.31-.54-3.47-.81-.46-.11-.92-.22-1.37-.37a17.27,17.27,0,0,0-5.38-1,2.45,2.45,0,0,1-.94-.09A7.69,7.69,0,0,0,441,1.94c-2-.14-4-.4-5.95-.62-.87-.09-1.73-.29-2.6-.31-1.75,0-3.51.22-5.22-.4a3,3,0,0,0-.95,0c-2.8,0-5.59-.1-8.39-.13-2,0-4,0-6,0A19.47,19.47,0,0,1,407,.22a23.15,23.15,0,0,1-2.46.23c-1.67-.06-3.34-.25-5-.29-2.8-.08-5.6,0-8.39-.14s-5.55.71-8.34.16c-.14,0-.31.1-.46.1-.47,0-.95,0-1.42-.05s-1.1-.17-1.65-.17c-2.4,0-4.8,0-7.2,0a2.14,2.14,0,0,0-1.94.93,6.56,6.56,0,0,0-.23.82c-.58,3.22-.73,6.48-1.06,9.73-.05.48,0,1-.07,1.44-.34,2.84-.68,5.68-.84,8.54-.18,3-.49,6-.85,9s-.4,5.86-.58,8.8c0,.72,0,1.44-.07,2.16s-.16,1.39-.25,2.22a3.57,3.57,0,0,0,1.06.38C369.35,44.17,371.43,44.11,373.5,44.2Zm41.19,57.51c0-1.43.31-2.82.27-4.25s.09-2.87.17-4.31c.11-1.9.28-3.8.36-5.71s.22-3.78.38-5.67.1-3.83.16-5.74a13.36,13.36,0,0,1,.39-4.27,3.72,3.72,0,0,0,0-1c.06-1.67.12-3.34.2-5s.15-3.14.24-4.71c.2-3.58.39-7.16.6-10.74a51.71,51.71,0,0,1,.34-5.42,17.75,17.75,0,0,0,0-2.63,37.46,37.46,0,0,1,.45-5.18l1.83-.5c1.44.17,2.8.23,4.11.52a9.26,9.26,0,0,0,1.88.21c1.6,0,3.2,0,4.79.12a91.39,91.39,0,0,1,11.52,1.69,34.57,34.57,0,0,1,5.12,1.19c2.59,1,5.35,1.61,7.81,2.93a40.29,40.29,0,0,1,8,5.57,20.38,20.38,0,0,1,4.52,5.81,39.38,39.38,0,0,1,3.83,9,12,12,0,0,1,.34,1.87c.11,1.74.65,3.44.55,5.22-.08,1.51-.07,3-.1,4.55a6.84,6.84,0,0,1-.11,1.19c-.28,1.48-.54,3-.88,4.44a40.81,40.81,0,0,1-2.33,6.25c-.15.36-.36.71-.51,1.07A21.88,21.88,0,0,1,462.18,97a53.74,53.74,0,0,1-5.07,4c-3,1.93-6,3.86-9.59,4.75-3.23.82-6.41,1.88-9.62,2.76a31.51,31.51,0,0,1-4,.8,72.84,72.84,0,0,1-8,1c-3.42.1-6.85.32-10.28.17-.3,0-.61-.05-1-.07a2.92,2.92,0,0,1-.19-.73C414.53,107,414.7,104.34,414.69,101.71ZM149.85,183.32a24.33,24.33,0,0,0-2.51,4.05,51.08,51.08,0,0,0-2.11,5.07,43.24,43.24,0,0,0-2.53,8.2c-.18,1.1-.38,2.19-.61,3.28a49.43,49.43,0,0,0-1.11,9.24,30.46,30.46,0,0,0,0,4.48c.22,1.72-.08,3.5.5,5.2-.39,1.88.48,3.59.78,5.36.45,2.74,1.55,5.32,2.28,8a10.4,10.4,0,0,0,1.13,2.63,63.91,63.91,0,0,0,3.81,5.77c1.58,2,3.37,3.84,5.13,5.69.92,1,2.09,1.74,3,2.74a15,15,0,0,0,4.33,3.31l2.12,1.12c1.54.83,3,1.8,4.64,2.47,2.25.95,4.48,2,7,2.16a8,8,0,0,1,2.8.51,12.08,12.08,0,0,0,4.44.77,13.74,13.74,0,0,1,1.66.22,7.7,7.7,0,0,0,3.54,0,6.16,6.16,0,0,1,1.67-.11,59.08,59.08,0,0,0,7.63-.46,46,46,0,0,0,5.83-1.18c.46-.13.92-.23,1.38-.35s1.23-.28,1.83-.48a11.36,11.36,0,0,1,1.32-.53,11.17,11.17,0,0,0,3.74-1.5,13.68,13.68,0,0,1,1.73-.82,11.77,11.77,0,0,0,3.49-2c.66-.56,1.48-.94,2.19-1.44,1-.69,1.92-1.42,2.86-2.15.38-.29.68-.68,1.06-1a48,48,0,0,0,5.06-4.36c3.19-3.05,5.53-6.79,8.08-10.34a29.32,29.32,0,0,0,1.6-2.92,9.88,9.88,0,0,0,1.25-2.29c.3-1.25.86-2.39,1.27-3.6s.86-2.38,1.22-3.59.54-2.16.79-3.24.5-2.17.75-3.25a14.45,14.45,0,0,0,.28-3.28c0-2.86.5-5.7.14-8.57a9.43,9.43,0,0,1,0-1.19l.13,0c-.14-.94-.28-1.88-.43-2.82-.24-1.57-.48-3.14-.73-4.71a3.51,3.51,0,0,0-.29-.9c-.65-1.28-.64-2.8-1.42-4a31.36,31.36,0,0,0-2.44-7.2c-.68-1.43-1.1-3-2.16-4.23s-1.35-2.89-2.49-4.05c-.49-.51-.74-1.24-1.23-1.75-2.07-2.11-4.1-4.27-6.31-6.22a34.84,34.84,0,0,0-6.56-4.73c-1.12-.61-2.11-1.5-3.27-2-2.85-1.2-5.75-2.29-8.67-3.34a13.77,13.77,0,0,0-2.81-.49,43.36,43.36,0,0,0-5.93-.64,96.86,96.86,0,0,0-11.41.86c-2.94.4-5.75,1.27-8.64,1.8a21.23,21.23,0,0,0-5.09,2,57.59,57.59,0,0,0-10.92,6.37,13.15,13.15,0,0,0-2,1.72c-1.2,1.4-2.56,2.62-3.83,3.94a32.53,32.53,0,0,0-3.13,3.61C152.43,179.89,151.17,181.63,149.85,183.32Zm23.37,30.55a16.84,16.84,0,0,1,.59-5.81c.81-2.74,1.67-5.47,3.65-7.72.93-1.06,1.76-2.23,2.71-3.31a24.85,24.85,0,0,1,4.81-3.89,11.87,11.87,0,0,1,3.73-1.54,18,18,0,0,1,11.73.63,34.14,34.14,0,0,1,6,3.45,4.66,4.66,0,0,1,1.06,1,16.75,16.75,0,0,1,3.67,7.41A55.85,55.85,0,0,1,212,210a14.37,14.37,0,0,1-1.13,6,28.55,28.55,0,0,1-5.91,9.2,19.6,19.6,0,0,1-8.12,5.32,2.79,2.79,0,0,1-.69.17c-2,.2-4,.43-6,.55s-3.76-.61-5.6-1.09a20.6,20.6,0,0,1-5.84-2.67A9.8,9.8,0,0,1,177,226a9.53,9.53,0,0,1-1.33-1.69,9.12,9.12,0,0,1-1.21-2.31c-.64-2.3-1.42-4.58-1.2-7A9.77,9.77,0,0,0,173.22,213.87Zm253.19-6a36.25,36.25,0,0,1,4-6.62c-.16-.59-.52-.79-.93-.75-2.78.23-5.57-.25-8.33.26a5.34,5.34,0,0,1-1.2,0,15.39,15.39,0,0,1-3.1-.2c-.9-.19-1.85.45-2.82,0a1.68,1.68,0,0,0-.93.07,7.49,7.49,0,0,1-3.33,0,4.68,4.68,0,0,0-1.66-.11c-1.5.27-3-.16-4.51.3a3.92,3.92,0,0,1-1.19.05l-10.55,0a3.75,3.75,0,0,1-.95,0c-2.85-.75-5.73-.13-8.59-.3-1-.05-1.92-.07-2.87-.11a3.81,3.81,0,0,1-1.79-.69,8.53,8.53,0,0,1,0-2.9,11.52,11.52,0,0,0,.14-2.1,5.65,5.65,0,0,0-.11-2.13,1.68,1.68,0,0,1,0-.94,4.14,4.14,0,0,0,0-2.58,5.33,5.33,0,0,1,.08-1.18q.09-3.18.15-6.37a6.35,6.35,0,0,0-.18-.93,2.13,2.13,0,0,1,0-.93,8.93,8.93,0,0,0,.23-3.33c0-3,0-6.07,0-8.88a2.09,2.09,0,0,1,1.7-1.19c1-.09,2.05-.11,3.08-.16l1.16,0a8.76,8.76,0,0,1,1.91-.06,22.73,22.73,0,0,0,7.13,0,8.9,8.9,0,0,1,3.09.06,12.28,12.28,0,0,0,4,.11,14.94,14.94,0,0,1,2.59-.05,25,25,0,0,0,2.56-.21,14.56,14.56,0,0,1,2.64,0,62.48,62.48,0,0,0,7.37,0c2.4,0,4.79-.12,7.19-.13,3,0,6.06,0,9.1,0,.95,0,1.9-.13,2.85-.2s1.59-.14,2.39-.14c7,0,14.07-.07,21.1-.06,6.79,0,13.58.06,20.37.06,2.87,0,5.75-.11,8.62-.13,1.83,0,3.66,0,5.33.07a2.61,2.61,0,0,1,.92,3.11c-.44.61-1,1.4-1.55,2.17a55.42,55.42,0,0,0-3.73,5.83,26.07,26.07,0,0,1-1.82,2.82c-1.67,2.24-3,4.69-4.41,7.07-1.16,1.91-2.43,3.75-3.63,5.62a51.65,51.65,0,0,0-3.52,6,21.57,21.57,0,0,1-1.36,2.24c-1,1.62-2,3.23-3,4.85-1.85,3-3.7,6-5.52,9a20.77,20.77,0,0,1-1.48,2.71,15.62,15.62,0,0,0-1.36,2.5c-.73,1.23-1.51,2.44-2.29,3.65a74.71,74.71,0,0,0-4.45,7.9c-.73,1.5-1.64,2.92-2.5,4.35-1.68,2.81-3.37,5.59-5,8.39-.23.39-.38.84-.65,1.42,1,0,1.91.11,2.78.1,3.76,0,7.51,0,11.27,0,2.07,0,4.14-.19,6.22-.22,1.27,0,2.53.11,3.8.17a15.89,15.89,0,0,0,4.3-.16,3.55,3.55,0,0,1,1.88,0c1.11.41,2.19-.1,3.31.1a16.24,16.24,0,0,0,3.32-.16,37.2,37.2,0,0,1,6,.11,21.76,21.76,0,0,0,3.32-.11,23.83,23.83,0,0,1,4.77.21,12.39,12.39,0,0,0,2.66-.16,17.58,17.58,0,0,1,0,4.35c-.19,1.32,0,2.64-.35,4a24.84,24.84,0,0,0-.13,4.06c-.23,2.85-.31,5.72-.75,8.55a1.59,1.59,0,0,0,0,.48c.34,1.82-.11,3.63-.1,5.45s-.05,3.68-.1,5.52c-.06,2.38-.67,2.94-3,2.85a4.76,4.76,0,0,1-1.2-.06c-1.81-.59-3.6-.17-5.42,0-1.58.13-3.18.05-4.77,0-.94,0-1.88-.07-2.82-.12s-1.9-.15-2.86-.15c-3.35,0-6.71,0-10.06,0a3.05,3.05,0,0,0-1,.06,6.52,6.52,0,0,1-2.33.1c-2.76,0-5.52-.19-8.28-.14s-5.59-.12-8.38,0c-1.75.07-3.48,0-5.23,0-3.27-.12-6.55-.24-9.82-.12-2.56.09-5.11.07-7.67,0a18,18,0,0,0-3.28,0,20,20,0,0,1-3-.26c-2,0-4,.12-6,.09-4.07-.06-8.13-.18-12.2-.31-1.11,0-2.22-.34-3.32-.29-2.47.1-4.93-.08-7.4-.12-.64,0-1.28,0-1.92-.06a2,2,0,0,1-1.74-1.28,12.11,12.11,0,0,1,1.27-2.94c.88-1.61,1.73-3.23,2.63-4.83.39-.69.86-1.33,1.29-2a2.48,2.48,0,0,0,.27-.39,31.39,31.39,0,0,1,2.86-5.21c1.09-1.76,2-3.61,3.05-5.41,1.37-2.42,3-4.66,4.24-7.19a19,19,0,0,1,1.59-2.67,32.87,32.87,0,0,0,2.66-4.79,20.38,20.38,0,0,1,3.17-5.59,1.7,1.7,0,0,0,.27-.39c1.48-2.82,3.44-5.36,4.64-8.33a3.15,3.15,0,0,1,.43-.86c1.82-2.14,2.58-4.92,4.37-7.11a16.67,16.67,0,0,0,2.29-4.19,67.16,67.16,0,0,1,3.78-6.92C426.11,208.27,426.31,208.1,426.41,207.89ZM256.23,226.66c-.8,2.57-2,5-2.13,7.82a13.79,13.79,0,0,1-.61,2.54,5.24,5.24,0,0,0-.26,1.39c.09,1.67-.22,3.36.18,5a1.65,1.65,0,0,1,0,.7c-.51,2.08,0,4.11.38,6.14.12.62.3,1.23.43,1.85a62.08,62.08,0,0,0,2.29,9,11.79,11.79,0,0,0,.51,1.33c1.06,2.14,2.1,4.3,3.24,6.39a17.87,17.87,0,0,0,2.09,3.19,20.93,20.93,0,0,1,1.75,2.75c.49.44,1,.86,1.43,1.3.68.68,1.3,1.39,2,2.06,1.54,1.5,3.29,2.76,4.93,4.14a32,32,0,0,0,5.57,3.62c.21.12.41.26.61.39a17.76,17.76,0,0,0,6.11,2.63,2.52,2.52,0,0,1,.9.3,10.93,10.93,0,0,0,3.13,1.11c1.09.31,2.23.3,3.29.58,2.94.8,6,.82,9,1.19a25.05,25.05,0,0,0,7.86-.38,42.08,42.08,0,0,0,8.55-2.11c3.1-1.28,6.26-2.43,9-4.41.27-.19.58-.52,1.06-.36a9.68,9.68,0,0,1,0,2.35,20.37,20.37,0,0,0-.34,3.81c-.07,1.26-.27,2.52-.42,3.79a58.05,58.05,0,0,1-.77,5.92c-.49,2.1-.88,4.21-1.26,6.33-.21,1.17-.41,2.35-.64,3.51a28.85,28.85,0,0,1-1,3.41c-.63,1.89-1,3.84-1.69,5.71a37.9,37.9,0,0,1-1.18,3.88c-1.11,2.39-1.93,4.88-2.88,7.33a27,27,0,0,1-2.25,4.74c-1.3,2-2.5,4.07-3.73,6.13a55.38,55.38,0,0,1-11.21,13.91c-.84.73-1.77,1.34-2.64,2a31.49,31.49,0,0,1-5.56,3.71c-1.64.82-3.2,1.8-4.86,2.57-1.44.66-3,1.09-4.46,1.67a23.4,23.4,0,0,1-4.07,1.35c-1,.21-2,.37-3,.62a34.82,34.82,0,0,1-5.9.85c-2.63.18-5.27.07-7.91.07a52.6,52.6,0,0,1-14.84-2.16,44.09,44.09,0,0,1-10.72-4.6,5.11,5.11,0,0,0-1.28-.64,11.25,11.25,0,0,1-3.38-1.77,60.59,60.59,0,0,1-10.39-8.72c-1-1.13-2.19-2.12-3.15-3.29a113.3,113.3,0,0,1-8.16-11.21c-1.27-2-2.33-4.16-3.41-6.29a28.61,28.61,0,0,1-1.6-3.74c-.86-2.48-1.6-5-2.43-7.5-1.27-3.85-2.15-7.81-3.19-11.72-.06-.24-.1-.47-.14-.71-.21-1.17-.42-2.35-.62-3.52-.11-.62-.22-1.25-.29-1.88a61.89,61.89,0,0,0-1.18-7.54,19.52,19.52,0,0,1-.42-2.83,9.79,9.79,0,0,0-.3-3.32c.35-.72-.15-1.39-.16-2.08s0-1.44,0-2.16a9.44,9.44,0,0,0-.63-3.53l-4.59-.2a3.45,3.45,0,0,0-.94-.08,20,20,0,0,1-4.3.18c-1.91.09-3.84-.31-5.73.24-1.36-.27-2.67.34-4,.27-3.12-.18-6.2.47-9.31.43-.14,0-.29.12-.58.24-.16.31-.39.72-.63,1.17,0,1.18,0,2.38,0,3.58a27.67,27.67,0,0,0,.25,3.53,19.5,19.5,0,0,1,.11,4,13.07,13.07,0,0,0,.27,3.54c.58,2.26.27,4.62.83,6.87-.16,3.63,1,7.09,1.51,10.62.22,1.4.63,2.78,1,4.17.59,2.39,1.19,4.78,1.82,7.16.43,1.61,1,3.19,1.38,4.81a68.56,68.56,0,0,0,3,8.55c.76,1.93,1.64,3.81,2.49,5.7.75,1.67,1.49,3.34,2.33,5s1.81,3.36,2.84,5,1.88,2.94,2.85,4.39c1.89,2.86,4.06,5.5,6.11,8.23,1.05,1.4,2.46,2.54,3.47,4,1.68,2.37,4,4.11,6,6.2,1.1.55,1.75,1.63,2.73,2.31a33.9,33.9,0,0,1,2.93,2.42,99.06,99.06,0,0,0,8.29,6.08c2.89,2,6.11,3.44,9.14,5.21,1.58.92,3.22,1.74,4.88,2.5,2.16,1,4.45,1.68,6.66,2.57,3.11,1.26,6.47,1.65,9.65,2.68,1.08-.2,2,.55,3,.56a42.76,42.76,0,0,1,5.16.75c2,.27,4.08.89,6,.24a16.84,16.84,0,0,0,2.06.34c1.44.06,2.88.09,4.32,0s2.85-.23,4.27-.34,2.56-.08,3.82-.27a46.89,46.89,0,0,0,6.52-1.36,6.62,6.62,0,0,1,1.64-.32,22.27,22.27,0,0,0,5.6-1.18c2.2-.69,4.34-1.57,6.54-2.25A26.28,26.28,0,0,0,301,394a3,3,0,0,1,.85-.43c2.29-.6,4.09-2.11,6.1-3.24.89-.5,1.62-1.26,2.54-1.77a55.3,55.3,0,0,0,7.18-5.16c1.2-.94,2.32-2,3.43-3s2.28-2.2,3.46-3.26a86.21,86.21,0,0,0,8.76-9.47c2.2-2.71,4.64-5.26,6.25-8.42.46-.91,1.18-1.7,1.67-2.61q3.51-6.39,6.58-13a87.07,87.07,0,0,0,3.75-10.07c.94-2.95,1.71-6,2.43-9,1.16-4.87,2.37-9.74,3.17-14.69a66.16,66.16,0,0,0,1.22-7.3c.07-1.34.42-2.67.61-4,.25-1.89.57-3.78.68-5.68.13-2.23.12-4.48.08-6.71,0-1.59.39-3.17.11-4.77a7.92,7.92,0,0,0,.39-3.06c0-1,.13-1.9.17-2.86s0-1.87.07-2.81a15.19,15.19,0,0,0,.1-2.85,16.62,16.62,0,0,1,.16-2.83c0-2.71-.24-5.43.38-8.11a1.07,1.07,0,0,0,0-.47,19.89,19.89,0,0,1,0-3.78c0-1.25.6-2.47.2-3.75.65-1.86.19-3.81.46-5.7a11.07,11.07,0,0,0,.24-3.07,27.76,27.76,0,0,1,.05-4.28c0-1.84.11-3.67.12-5.51,0-2.16-.05-4.31-.07-6.47,0-1.76,0-3.52,0-5.27a6.6,6.6,0,0,1,.15-2.37c.35-.82-.32-1.6.15-2.33l.09-5.74a5.88,5.88,0,0,1-.18-3.05,110.42,110.42,0,0,0,.27-12.2c0-.88,0-1.76,0-2.64,0-1.52.16-3,0-4.55a22.53,22.53,0,0,1,.22-4.5,22,22,0,0,0-.19-2.83c0-3.11-.06-6.23-.06-9.35a9.43,9.43,0,0,1,.22-1.52,2.4,2.4,0,0,0-2.44-2,17,17,0,0,1-2.15-.09,36.29,36.29,0,0,0-5.2-.48,6,6,0,0,1-1.42-.09,13.82,13.82,0,0,0-3.56-.33c-1.59,0-3.19,0-4.77-.19a45.62,45.62,0,0,0-5.48-.29,20.26,20.26,0,0,1-3.82-.11c-2.55-.47-5.11,0-7.65-.27a1.48,1.48,0,0,0-1.55.79c-.06.71-.06,1.59-.21,2.45a69.24,69.24,0,0,0-.87,7.58c-.1,1.52-.41,3-.55,4.5a13.89,13.89,0,0,1-.57,2.31c-1.22,0-2.34-.09-3.44,0-2.53.25-5.1.18-7.57.91a5.19,5.19,0,0,1-1.19.07c-.56,0-1.13,0-1.67.13a41.35,41.35,0,0,0-6.06,1.3c-.91.29-1.8.64-2.7.94-2,.68-4.12,1.24-6.1,2a63.14,63.14,0,0,0-7.3,3.57c-1,.58-2,1.24-3.09,1.79a56.06,56.06,0,0,0-6.62,4.26c-1,.69-1.8,1.54-2.69,2.32-1.54,1.39-3.17,2.69-4.6,4.19a59.77,59.77,0,0,0-4.47,5.31,37.46,37.46,0,0,0-5.2,8.28c-.21.52-.55,1-.81,1.47-.5,1-1.05,2-1.47,3C257.09,224.09,256.63,225.37,256.23,226.66Zm32.67,11.77a17.69,17.69,0,0,1,2-6.83,22.41,22.41,0,0,1,6.14-7.22c1.37-.95,2.64-2.06,4.07-2.94a39.36,39.36,0,0,1,5.78-2.87,40.54,40.54,0,0,1,4.12-1.18,24.8,24.8,0,0,1,6.1-1,39.88,39.88,0,0,0,5.46-.29A1,1,0,0,1,323,216c1.14.52,2.37.19,3.55.36.23,0,.45.11.94.24-.12,1.86.15,3.58-.36,5.33a10.51,10.51,0,0,0-.23,3.29,22.27,22.27,0,0,1-.53,4,6.22,6.22,0,0,0-.21.93c.09,3.89-1.37,7.5-2.11,11.24a17.91,17.91,0,0,1-2.84,6.28,24,24,0,0,1-4.69,5.41,21,21,0,0,1-5.59,3.63,17.38,17.38,0,0,1-9.2.69,14.59,14.59,0,0,1-4.17-1,11.49,11.49,0,0,1-4.76-3.46,14.83,14.83,0,0,0-1.17-1.21,9.48,9.48,0,0,1-2-3.48A21,21,0,0,1,288.9,238.43ZM163.8,71.9a61.19,61.19,0,0,0,1.93,5.83,39.45,39.45,0,0,0,5,8.65c1.27,1.74,2.73,3.34,4.16,5a26,26,0,0,0,2.86,2.89,52,52,0,0,0,8,5.69c1,.54,2,1,2.95,1.54a36.92,36.92,0,0,0,6.84,2.79,53.86,53.86,0,0,0,7.61,1.88,38.88,38.88,0,0,0,4.72.46,1.22,1.22,0,0,0,.47,0c1.55-.6,3.18-.16,4.85-.42a16.61,16.61,0,0,0,5.36-.48,40.52,40.52,0,0,1,5.35-1,4,4,0,0,0,.69-.15,72,72,0,0,0,8.45-3.27,39.06,39.06,0,0,0,10.15-7,80.85,80.85,0,0,0,6.24-6.58,34.16,34.16,0,0,0,4.87-7.87c1-2.08,1.58-4.31,2.33-6.48a14.11,14.11,0,0,0,.45-1.84c.23-1.17.31-2.38.65-3.51.94-3.16,1-6.41,1.18-9.65.12-1.77-.41-3.49-.42-5.24a38.12,38.12,0,0,0-.75-5.66c-.34-2.11-1.06-4.16-1.57-6.24a46.71,46.71,0,0,0-2.33-6A55,55,0,0,0,250.14,28a33.32,33.32,0,0,0-4.91-6.74,61.54,61.54,0,0,0-9.14-7.69c-.45-.32-.94-.6-1.42-.88-2.36-1.34-4.76-2.59-7.22-3.75a32.74,32.74,0,0,0-5.58-2.05,26.93,26.93,0,0,0-6.13-1c-1.42,0-2.85-.14-4.25-.27a14.7,14.7,0,0,0-5.21.18,10.15,10.15,0,0,1-1.66.16c-3.67.35-7.28.85-10.52,2.8a3.14,3.14,0,0,1-.89.36A15.51,15.51,0,0,0,189.34,11c-1.17.66-2.32,1.38-3.46,2.12a26.39,26.39,0,0,0-3.54,2.43c-1.89,1.7-4,3.19-5.79,5a28,28,0,0,0-4.44,5c-.17.27-.37.51-.56.77-.68,1-1.38,1.94-2.05,2.93-1.16,1.71-1.94,3.63-3,5.4a17.58,17.58,0,0,0-1.82,4.63c-.94,3.54-2.25,7-2.33,10.71a.85.85,0,0,1,0,.23,38.8,38.8,0,0,0-.7,8,32.5,32.5,0,0,0,.76,7.78C162.83,67.93,163.24,70,163.8,71.9Zm31.54-17.41a23.6,23.6,0,0,1,3.45-8.59,13.22,13.22,0,0,1,3.28-3.1,15.22,15.22,0,0,1,6.44-2.91c.39-.09.77-.23,1-.31,1.3.11,2.25.23,3.2.27a9.25,9.25,0,0,1,4.69,1.63c.4.26.73.64,1.14.87,2.9,1.61,4.17,4.5,5.65,7.22a3.78,3.78,0,0,1,.49,1.59,36.86,36.86,0,0,0,.83,4.21,4.11,4.11,0,0,1,.15,1.18c-.39,2.27-.36,4.61-1.33,6.77a24.26,24.26,0,0,1-2.22,4.48A11.78,11.78,0,0,1,216.51,72a19.85,19.85,0,0,1-10.86.5c-3.93-1.67-7.29-4-9.12-8A16.55,16.55,0,0,1,195.34,54.49ZM8.48,358.18a3.15,3.15,0,0,0,2.22.72c2.47.13,4.94.3,7.41.45a2.76,2.76,0,0,1,.71.06,13.14,13.14,0,0,0,3.8.34c3.58.14,7.16.3,10.74.41,2,.06,4,.07,6,0,1.27,0,2.54-.15,3.82-.22s2.51-.11,3.77-.2a21.35,21.35,0,0,0,4.25-.43c1.71-.5,3.51-.23,5.17-.85,1,.11,2-.24,3.08-.23s2.16-.67,3.24-.68a32.85,32.85,0,0,0,5.42-.83,24.38,24.38,0,0,0,4.91-1,3.83,3.83,0,0,1,1.16-.26,14.39,14.39,0,0,0,3.7-1c2.56-.87,5-2.1,7.66-2.65a2.44,2.44,0,0,0,.43-.21l4.55-2.12c5.07-2.31,10.19-4.53,14.62-8a3.94,3.94,0,0,1,.84-.44,9.41,9.41,0,0,0,3.08-2.22,8.92,8.92,0,0,1,1.25-1.13,70.27,70.27,0,0,0,9.18-8.4,48.46,48.46,0,0,0,6.86-8.59c.29-.48.68-.9,1-1.37,1-1.54,2.08-3,2.94-4.65,1-1.81,1.73-3.74,2.61-5.61a36.5,36.5,0,0,0,2.19-5.3c1.22-4.12,2.2-8.3,3.25-12.46a28.49,28.49,0,0,0,.94-6.61,29.18,29.18,0,0,1,.6-5.21,18.35,18.35,0,0,0,.1-5c-.08-.87-.23-1.73-.25-2.6a62.38,62.38,0,0,0-1.16-12.12c-.24-1.09-.55-2.16-.77-3.25-.18-.93-.2-1.9-.43-2.82-.82-3.33-2.17-6.48-3.3-9.71a3.75,3.75,0,0,0-.4-.86c-1.26-1.94-1.73-4.29-3.17-6.14a3.63,3.63,0,0,1-.33-.89,8.62,8.62,0,0,0-.62-1.3c-1.72-2.59-3.39-5.23-5.22-7.74-1.69-2.31-3.6-4.46-5.34-6.73-2.5-3.27-5.74-5.75-8.78-8.45a3.48,3.48,0,0,0-.39-.28c-1-.71-1.93-1.4-2.89-2.12-1.15-.86-2.26-1.77-3.43-2.6a39.2,39.2,0,0,0-5.78-3.36c-2.65-1.28-5.19-2.78-7.93-3.88-2.36-1-4.75-1.83-7.06-2.91a5.39,5.39,0,0,0-1.36-.43c-1.64-.32-3.17-1-4.78-1.41-2.79-.66-5.41-1.91-8.3-2.16a24.6,24.6,0,0,0-5.34-1.22,78,78,0,0,0-8.48-1.36c-1.67-.15-3.33-.39-5-.46a42,42,0,0,1-5.24-.4c-1.88-.32-3.8-.42-5.7-.57s-3.94-.22-5.91-.34c-2.7-.15-5.41-.32-8.12-.45a18.57,18.57,0,0,1-4.52-.36,4.34,4.34,0,0,0-1.2-.06c-1.28,0-2.55-.06-3.83-.06-.56,0-1.11.08-1.7.13l-1.08,1.26c0,.44-.12.84-.12,1.24,0,2,0,4,.09,6s-.54,4.11-.38,6.19a6.53,6.53,0,0,1-.22,1.42,11.22,11.22,0,0,0-.24,1.41c-.13,3.9-.4,7.8-.71,11.69a1.68,1.68,0,0,0,.05.71,4.66,4.66,0,0,1,0,2.59,13.76,13.76,0,0,0-.19,2.39c0,2.56,0,5.11.06,7.67a36,36,0,0,0-.12,3.75c-.58,2.9-.4,5.85-.56,8.78-.18,3.34-.08,6.7-.15,10.06,0,1.75-.2,3.5-.23,5.25,0,3,0,5.91,0,8.87,0,1.6.09,3.19.11,4.79s-.41,3.16-.08,4.76a3.4,3.4,0,0,1-.11.94c-.06.64-.16,1.27-.17,1.9,0,1.75.15,3.52,0,5.26a35.83,35.83,0,0,0-.06,5.18,8.14,8.14,0,0,1-.16,1.18,9.39,9.39,0,0,0-.16,1.17,14.36,14.36,0,0,0,0,3.34c.24,1.16-.22,2.19-.24,3.29a15.15,15.15,0,0,0,0,3.56c.28,1.25-.35,2.35-.16,3.53,0,.32,0,.64.07,1a9.24,9.24,0,0,1,0,3.06,7.58,7.58,0,0,0-.07,1.43c0,1.12.08,2.24.09,3.36a17.7,17.7,0,0,1-.07,3.34c-.2,1.09.39,2.2-.2,3.27-.13.23,0,.62,0,.94.1,1,.3,2.06.32,3.09a47.4,47.4,0,0,1,0,6.95,46,46,0,0,0-.28,6.2c0,1.6,0,3.2.13,4.79a31.35,31.35,0,0,1-.12,4.75c0,.32,0,.64,0,1,0,2.4,0,4.79,0,7.19A4.45,4.45,0,0,0,8.48,358.18Zm34.72-36.7a11.33,11.33,0,0,0,.25-3.33c0-5.75,0-11.5,0-17.25a4.23,4.23,0,0,1,.06-1.43,8.71,8.71,0,0,0,.29-3.08c0-1.44,0-2.88.05-4.32,0-.79.16-1.58.25-2.37a11.4,11.4,0,0,0,.15-1.42c0-1.19.2-2.37.07-3.56a32.79,32.79,0,0,1,.13-5.69c.07-.87.15-1.75.16-2.63,0-3.19,0-6.39,0-9.59a10.75,10.75,0,0,1,.22-3.09,6.15,6.15,0,0,0,.15-2.14c-.14-1.83.15-3.65.07-5.48,0-1.1.15-2.21.17-3.32.05-1.83,0-3.67.07-5.51s.29-4,.36-6c.07-1.76,0-3.52,0-5.27a37.19,37.19,0,0,1,.29-6,30.91,30.91,0,0,0,.07-4.31,2,2,0,0,1,.5-1.68c1.08,0,2.27,0,3.45.14,1.67.19,3.32.48,5,.75,2,.33,4.09.64,6.13,1,1.24.25,2.45.68,3.68,1a59.94,59.94,0,0,1,11.07,3.76A72.83,72.83,0,0,1,85.17,236,38.34,38.34,0,0,1,93,242.64a51.5,51.5,0,0,1,4.64,5.76c1.05,1.69,2.15,3.36,3.09,5.11a41.15,41.15,0,0,1,3.1,6.95c.25.75.4,1.54.59,2.31,0,.15,0,.34.06.47,1,1.9.94,4,1.25,6.05a31.53,31.53,0,0,1,.22,3.77c0,1.28.07,2.56,0,3.83a23.09,23.09,0,0,1-.36,3.32c-.42,2.19-.77,4.39-1.39,6.54-.33,1.14-.65,2.29-1,3.42a13.89,13.89,0,0,1-.61,1.3l-1.63,3.45a1.57,1.57,0,0,1-.18.44c-2,2.66-3.35,5.73-5.81,8.12s-4.6,4.64-7,6.88a8.15,8.15,0,0,1-1.88,1.45,35.54,35.54,0,0,0-5.5,3.37,3.85,3.85,0,0,1-.6.39c-1.92,1-3.84,1.93-5.78,2.86-1.21.58-2.44,1.11-3.66,1.67a5.44,5.44,0,0,1-.65.3,77.55,77.55,0,0,1-7.83,2c-2.68.39-5.35.85-8,1.28a7.62,7.62,0,0,1-.94.14c-3,.07-6.07.13-9.11.18a2.88,2.88,0,0,1-.74-.19A5.24,5.24,0,0,1,43.2,321.48ZM.28,88.19a14.74,14.74,0,0,0,0-1.88,2.66,2.66,0,0,1,0-.94,13.59,13.59,0,0,0,.62-4.19,16.35,16.35,0,0,1,.75-4,5,5,0,0,0,.24-.92A65.59,65.59,0,0,1,4,66.73a56.13,56.13,0,0,1,2.84-8.34c.36-.79.6-1.64.89-2.46.11-.3.2-.61.34-.9,1-2.05,2.12-4.1,3.16-6.16a9,9,0,0,0,.55-1.32,16.55,16.55,0,0,1,1.52-3c1.06-1.86,2.27-3.62,3.32-5.48A58.54,58.54,0,0,1,23,29.86c.67-.78,1.23-1.66,1.84-2.5a4.08,4.08,0,0,1,.57-.76c1.38-1.11,2.32-2.66,3.61-3.82,2-1.81,3.63-4.06,6.08-5.36a1.37,1.37,0,0,0,.38-.29c1.49-1.74,3.55-2.69,5.37-4,1.29-.91,2.58-1.82,3.92-2.67a39.64,39.64,0,0,1,3.52-2c1.35-.68,2.74-1.28,4.12-1.87.81-.34,1.64-.6,2.47-.9a12.24,12.24,0,0,0,1.57-.57,19.17,19.17,0,0,1,6.13-1.9,9,9,0,0,0,1.63-.38c2.73-.91,5.61-1.14,8.38-1.86A13.12,13.12,0,0,1,74.21.8C75,.72,75.78.61,76.57.54S78.16.43,79,.4A25.34,25.34,0,0,0,83.72.15a2.93,2.93,0,0,1,.93,0,13.74,13.74,0,0,0,1.67.18A44.48,44.48,0,0,1,96,1.74c2.92.6,5.59,1.85,8.43,2.66,1,.31,2,1,3,1.43a30.33,30.33,0,0,1,7.28,4.05c4.06,3,8,6,11,10.24.5.71,1.19,1.28,1.73,2a27.41,27.41,0,0,1,3,4.28c1.24,2.32,2.76,4.49,3.82,6.91.67,1.54,1.46,3,2,4.6a41,41,0,0,1,2.29,6.78c.2,1.17.59,2.31.85,3.48.18.77.28,1.56.4,2.35.05.31,0,.64.09.94A33.67,33.67,0,0,1,141,65.05l-.78.9a3,3,0,0,1-.57.16,19,19,0,0,1-4.51-.32,8,8,0,0,0-1.9-.09,23.05,23.05,0,0,1-5.24-.44,3.56,3.56,0,0,0-.47-.05c-2.87-.21-5.73-.4-8.59-.63-1.34-.11-2.68-.4-4-.4-2.64,0-5.24-.45-7.8-.53a1.8,1.8,0,0,1-.92-1.42c-.45-3-1.71-5.79-2.74-8.64a19.79,19.79,0,0,0-1.19-2.34c-.19-.35-.46-.66-.65-1-2.49-4.6-4.5-5.73-8.4-8.66-1.67-1.24-3.74-1.72-5.72-2.34-3.59-1.14-7.27-.92-10.93-.88a13.69,13.69,0,0,0-3.76.61c-3.58,1.09-7.24,2-10.42,4.12-1.13.74-2.26,1.5-3.31,2.34-1.49,1.2-2.92,2.49-4.37,3.74A22,22,0,0,0,52.16,52c-1.49,1.79-2.56,3.86-4,5.63a3,3,0,0,0-.42.58c-1.85,3.88-4.3,7.47-5.45,11.68-.17.61-.52,1.16-.74,1.76-.87,2.31-1.28,4.76-2,7.11-.19,3.16-1.21,6.23-1.11,9.43a5.16,5.16,0,0,1-.15,1.42,6,6,0,0,0-.09,1.89c.06,1.34,0,2.68,0,4,0,.63.1,1.26.16,1.89a6.75,6.75,0,0,1,.12,1.18c-.27,3.09.67,6,1.2,9A40.88,40.88,0,0,0,41,113.14c.91,2.79,1.6,5.69,3.4,8.11,1,2.64,2.78,4.81,4.37,7.08a26.18,26.18,0,0,0,2.85,3.21c.94,1,2,1.88,3,2.81a20.06,20.06,0,0,0,6.77,4.41A29.76,29.76,0,0,0,71,141a9.9,9.9,0,0,1,1.42.2,3.55,3.55,0,0,0,.69.19c3.35,0,6.69.92,10,.48,2-.27,4.14-.1,6.14-.81.65-.23,1.44-.06,2.13-.23,1.08-.26,2.13-.65,3.19-1,.76-.25,1.5-.56,2.27-.77a10.75,10.75,0,0,0,5.27-2.6,1.47,1.47,0,0,1,.59-.41c1.69-.44,2.82-1.77,4.21-2.68a11.7,11.7,0,0,0,2.44-2.28,17.58,17.58,0,0,0,2.9-3.78,8.13,8.13,0,0,1,1.31-1.7,13.75,13.75,0,0,0,1.76-2.8c.7-1.36,1-2.86,1.69-4.19a3,3,0,0,0,.15-1,9.34,9.34,0,0,0-2.9-.24,36.41,36.41,0,0,1-6.67-.64c-.61-.1-1.24-.06-1.86-.13-3.24-.33-6.49-.7-9.73-1-2.3-.22-4.61-.38-6.91-.57-4.29-.36-8.6-.62-12.87-1.12-2.61-.31-5.22-.58-7.84-.84a18.55,18.55,0,0,1-2.53-.59,10.17,10.17,0,0,1-.53-1.15,1.93,1.93,0,0,1,0-.72c.22-2.3.38-4.6.71-6.89a20.63,20.63,0,0,0,.26-2.6,22.06,22.06,0,0,1,.36-4.29c.22-1.06.18-2.18.36-3.23s.24-2,.32-3.07c.13-1.67.36-3.33.54-5q.21-2,.39-4a3,3,0,0,1,1.94-2.88c.84.13,1.78.29,2.72.42s1.73.24,2.6.36a11.71,11.71,0,0,0,1.19.14,66.6,66.6,0,0,1,8.09.72c.86.12,1.74.12,2.61.18,2.86.2,5.71.5,8.55.88,2,.27,4,.34,6,.53,1.27.13,2.53.32,3.8.47a1.57,1.57,0,0,0,.23,0c2.89-.19,5.69.73,8.58.6a16.55,16.55,0,0,1,2.6.29c1.74.2,3.48.47,5.22.57,3,.17,5.87.5,8.8.88.47.06,1,0,1.43.08l8.81.8c.64.06,1.28.09,1.91.16,1,.11,2.05.24,3.08.36a7.79,7.79,0,0,0,1,.09A28.85,28.85,0,0,1,154,87a3.47,3.47,0,0,1,1.49,1.69,12.57,12.57,0,0,1-.17,4.39c-.15.69-.09,1.43-.23,2.13a8.91,8.91,0,0,0-.06,1.86c0,1.43-.07,2.86-.17,4.29-.17,2.31-.73,4.56-.76,6.88a17.38,17.38,0,0,1-.68,4,18.48,18.48,0,0,0-.69,3.75,3.74,3.74,0,0,1-.1,1c-.82,2.58-1.14,5.28-1.93,7.87-.32,1.07-.62,2.15-1,3.21a12.3,12.3,0,0,1-1.38,3.29,4.26,4.26,0,0,0-.59,1.3,37.87,37.87,0,0,1-3.08,6.73c-.71,1.42-1.64,2.73-2.49,4.08-1,1.55-2.09,3-2.9,4.66a14.89,14.89,0,0,1-2.16,3.13c-2.58,2.92-5,6-8.11,8.42a92.1,92.1,0,0,1-10,6.91,65.08,65.08,0,0,1-6.53,3.51c-2.12.91-4.23,1.9-6.42,2.62a44.83,44.83,0,0,1-5.49,1.59c-.77.15-1.51.49-2.27.7-.92.25-1.86.45-2.78.69a12.38,12.38,0,0,0-1.61.46,18.38,18.38,0,0,1-3.92.95c-.63.12-1.26.21-1.88.35a28.69,28.69,0,0,1-6.66.61c-1.83,0-3.67-.05-5.51-.1-.71,0-1.42-.12-2.13-.19a4.36,4.36,0,0,0-.94-.1,15.8,15.8,0,0,1-5.89-.57c-1.87-.42-3.76-.69-5.64-1a25.78,25.78,0,0,1-4.42-1c-1.66-.53-3.37-.91-5-1.45-1.36-.45-2.69-1-4-1.54-1.1-.47-2.2-.95-3.25-1.52-2.1-1.14-4.32-2.08-6.12-3.72-1.62-.68-2.84-2-4.38-2.82a24.36,24.36,0,0,1-3.42-2.61c-1.61-1.3-3.26-2.55-4.81-3.93a43.34,43.34,0,0,1-6.22-6.55,14.26,14.26,0,0,0-1.29-1.42,4.51,4.51,0,0,1-1.42-1.89,1,1,0,0,0-.25-.4c-1.84-1.69-2.75-4.1-4.52-5.85a3.11,3.11,0,0,1-.85-1.42,7,7,0,0,0-1.38-2.48,10.8,10.8,0,0,1-1.48-2.73c-1.06-3.09-2.66-6-3.65-9.07-.43-1.37-.87-2.73-1.29-4.1-.05-.15,0-.33-.07-.47-.92-2.14-1.13-4.45-1.68-6.68a52.69,52.69,0,0,1-1.25-9.92c-.09-1.67-.42-3.34-.4-5C.12,95.69-.23,91.94.28,88.19Zm263,20.49c.07.48.1,1,.2,1.42.42,1.86,1,3.66,1.51,5.52a44.63,44.63,0,0,0,5,11.35c.43.76.94,1.49,1.43,2.21a63.58,63.58,0,0,0,5.86,6.92,28.43,28.43,0,0,0,6.62,5.84,3.53,3.53,0,0,1,.93.75,11.22,11.22,0,0,0,2.51,1.81c.74.47,1.5.91,2.26,1.36a15.87,15.87,0,0,0,1.46.8c1.39.6,2.79,1.15,4.18,1.74a35.64,35.64,0,0,0,13,2.94c1.35,0,2.7.23,4,.17,2-.1,4-.49,5.93-.51a17.88,17.88,0,0,0,5.15-.75,11.91,11.91,0,0,1,1.86-.42,30.16,30.16,0,0,0,8-2.49c2.55-1.09,4.93-2.58,7.38-3.9a4,4,0,0,0,1-.67,15.38,15.38,0,0,1,3.27-2.4,6.52,6.52,0,0,0,1.35-1c1.56-1.59,3.09-3.22,4.6-4.86,1.24-1.35,2.15-3,3.26-4.4,2.86-3.71,4.62-8,6.58-12.15a26.34,26.34,0,0,0,1.16-3.88c.21-.68.41-1.37.64-2a10.2,10.2,0,0,0,.8-3.47,12.29,12.29,0,0,1,.68-4.12c0-1.35-.08-2.15-.06-2.94a44.41,44.41,0,0,0-.57-9c-.36-2-.67-3.93-1.22-5.82a45,45,0,0,0-2.08-5.34c-.7-1.6-1.53-3.16-2.33-4.72a35.16,35.16,0,0,0-6.77-9.51,4.93,4.93,0,0,1-.5-.52,30.5,30.5,0,0,0-7.76-6.6,13.46,13.46,0,0,1-2.14-1.5,19,19,0,0,0-4.83-3.08c-2.46-1.14-4.95-2.21-7.45-3.26a12.29,12.29,0,0,0-2.52-.72c-2.35-.42-4.65-1.21-7.08-1a.82.82,0,0,1-.47-.06c-1.14-.58-2.36-.34-3.54-.4-.8,0-1.6,0-2.4,0a26.19,26.19,0,0,0-7.12.78c-3.41.79-6.91,1.32-10.13,2.79a3.37,3.37,0,0,1-.69.19,10.82,10.82,0,0,0-4.57,2,7.32,7.32,0,0,1-.81.5c-1.52.85-3.11,1.6-4.56,2.57a47,47,0,0,0-7.49,6.31c-.94,1-1.89,2-2.73,3s-1.51,2.24-2.33,3.32a11.5,11.5,0,0,0-2.2,3.66,13.67,13.67,0,0,0-2,3.51,38.75,38.75,0,0,0-3.36,10.65c-.44,2.42-.58,4.9-1.16,7.31a27.26,27.26,0,0,0-.38,3.11,7.2,7.2,0,0,1,.18,1.33A48.46,48.46,0,0,0,263.27,108.68Zm31.78-9.26a25.91,25.91,0,0,1,1-4.66,23.22,23.22,0,0,1,6.48-9.32A6.55,6.55,0,0,1,305,84a22.4,22.4,0,0,1,11.25-1.08,18,18,0,0,1,6,2.2,36.88,36.88,0,0,1,3.39,2.25,9.92,9.92,0,0,1,1.54,1.5A26.17,26.17,0,0,1,331.85,97c.07,1.44.13,3,.19,4.47a11.71,11.71,0,0,1-1,5.35,38.14,38.14,0,0,1-2.42,4.93,15.33,15.33,0,0,1-8.66,7.08,24.53,24.53,0,0,1-6.28,1.29,14.24,14.24,0,0,1-6.06-1.16,17.16,17.16,0,0,1-7.47-5.75c-1.3-1-1.9-2.56-2.78-3.87a9,9,0,0,1-1.31-3.3c-.29-1.73-.57-3.44-.95-5.15A4,4,0,0,1,295.05,99.42Z"/><path class="cls-3" d="M365,432.34a30.25,30.25,0,0,1-.06-4.26,32.39,32.39,0,0,0,.12-4.07,13.28,13.28,0,0,1,.15-1.67,3.9,3.9,0,0,0,0-1.89,2.06,2.06,0,0,1,0-1.18,9.56,9.56,0,0,0,.29-3.32c0-1,.4-2,.14-3.07.74-6.05,0-12.13.46-18.19.27-3.88.31-7.78.49-11.67.05-.95.29-1.89.37-2.84.16-1.74.26-3.49.41-5.24a10.83,10.83,0,0,1,.3-1.88,1.77,1.77,0,0,0,0-1.16,1.11,1.11,0,0,1-.06-.69,9.51,9.51,0,0,0,.24-3.56c0-2.47,0-5,.23-7.42.19-2.07.41-4.12.42-6.19a9.78,9.78,0,0,1,.29-3.56c.15-.39-.08-.93-.11-1.4a7,7,0,0,1-.07-2.13,18.63,18.63,0,0,0,.36-3.32c.14-1.73.27-3.47.37-5.2.08-1.44.13-2.88.14-4.31a8.69,8.69,0,0,1,.29-3.08,5.38,5.38,0,0,0,.08-1.66c0-1.44,0-2.88.1-4.32,0-.71.19-1.41.26-2.12a19.22,19.22,0,0,0,.14-2.14,8.7,8.7,0,0,1,.3-3.09,2.05,2.05,0,0,0,.11-.7c0-1.12,0-2.24.09-3.36s.27-2,.4-3a80.28,80.28,0,0,0,.54-10.28,2.63,2.63,0,0,1,.4-2,15.38,15.38,0,0,1,2.94.06,7.78,7.78,0,0,0,2.14.15c2.07-.28,4.12.11,6.17.08s4.15,0,6.23.05a3.82,3.82,0,0,1,1,.05,17.31,17.31,0,0,0,5.7.15,13.26,13.26,0,0,1,1.41,0,4.26,4.26,0,0,0,1.17.06c1.58-.44,3.17.26,4.69-.34l.61,1c-.06.41-.15.79-.17,1.18a11.78,11.78,0,0,0,0,1.68,45.3,45.3,0,0,1-.08,5.94c-.09,2,0,4,0,6a15.58,15.58,0,0,1-.27,4.52c.29,1.17-.09,2.34.1,3.54a10.34,10.34,0,0,1,0,3.76,20.68,20.68,0,0,0-.22,3.34c-.15,3.74-.29,7.49-.43,11.23a28.92,28.92,0,0,1-.17,4.07c-.37,2-.17,4-.37,6,0,.46,0,.93,0,1.49a9.1,9.1,0,0,0,3.41,0,21.85,21.85,0,0,0,7.27-2.23c1.33-.71,2.61-1.54,3.89-2.34a15,15,0,0,0,3.5-3.25c.72-.85,1.51-1.64,2.24-2.49a14.33,14.33,0,0,0,2.94-4.32,1.51,1.51,0,0,1,.11-.22,53.07,53.07,0,0,0,3.61-8.84,10.28,10.28,0,0,0,.33-1.38,27.79,27.79,0,0,1,.6-3.3c.75-2.45.86-5,1.39-7.5.64-3.05.72-6.17,1.2-9.24-.2-1.59.37-3.13.27-4.73a4.84,4.84,0,0,1,.73-3.15,3,3,0,0,0,.8.12c1.82-.26,3.62.16,5.44.12s3.67.07,5.51.1,3.68,0,5.52,0a30,30,0,0,1,4.53.25,34.44,34.44,0,0,0,4.55.13c.88,0,1.75,0,2.46,0,.63.43.22.84.29,1.19a9.43,9.43,0,0,1,.22,1.18,4,4,0,0,1,0,1.43,17.48,17.48,0,0,0-.29,4.27,3.35,3.35,0,0,1,0,.71,56,56,0,0,0-.67,7.86,4,4,0,0,0,0,1.62,2.85,2.85,0,0,1-.15,1.4,18.53,18.53,0,0,0-.72,5,16.32,16.32,0,0,1-.59,4c-.71,2.77-1.47,5.54-2.09,8.33a21.24,21.24,0,0,1-1,4.16c-.58,1.31-1.13,2.63-1.63,4a56.54,56.54,0,0,1-3.64,7.51c-1.74,3.13-3.81,6.08-5.73,9.11-2.15,2-3.72,4.6-6.23,6.25a9.39,9.39,0,0,0-1.23,1.14,10.67,10.67,0,0,1-3.45,2.53c-.21.08-.35.31-.52.47a3.15,3.15,0,0,0,0,2.12c.48,2.1,1,4.19,1.44,6.29.65,2.87,1.33,5.73,2.16,8.55.61,2.05,1.09,4.14,1.66,6.21.67,2.45,1.34,4.91,2,7.37.51,2,1.15,4,1.78,6,.75,2.35,1.55,4.68,2.35,7,.36,1.05.74,2.11,1.17,3.13,1.09,2.57,2.1,5.17,3.34,7.66a53.3,53.3,0,0,0,4.13,7.27,40.31,40.31,0,0,0,5.84,6.94,41.8,41.8,0,0,0,5,4.1,26.74,26.74,0,0,0,5.77,2.86A11.76,11.76,0,0,0,484,445.32a10.5,10.5,0,0,0,1.67-2,19.23,19.23,0,0,0,3.18-7.14c.43-1.87.84-3.74,1.14-5.63.33-2,.58-4.1.76-6.16a32.15,32.15,0,0,1,.64-5.05,9.2,9.2,0,0,1,1.15-.13c3,0,6.09-.18,9.11.05,1.91.14,3.82.21,5.73.28,1.11.05,2.23,0,3.35.07,2.23.12,4.46.28,6.69.44a2,2,0,0,1,.55.23,9.77,9.77,0,0,1,.29,3.21q.07,3.94-.13,7.91a35.85,35.85,0,0,1-.71,5.91c-.38,1.69-.36,3.48-.64,5.2s-.71,3.59-1.15,5.36a61,61,0,0,1-4.49,11.06,12.31,12.31,0,0,1-1.14,1.82,77.86,77.86,0,0,1-5.55,6.87,20.82,20.82,0,0,1-3.25,2.82,46.81,46.81,0,0,1-7.12,4.39,27,27,0,0,1-7.44,2.47c-1.1.15-2.18.47-3.28.69a9.83,9.83,0,0,1-4,.29,1.46,1.46,0,0,0-.72,0c-2.3.76-4.59,0-6.87-.13a30.81,30.81,0,0,1-5.13-1.14c-1.54-.4-3.09-.79-4.59-1.33a24.87,24.87,0,0,1-6.06-2.8c-.52-.36-1.12-.6-1.68-.91a28.7,28.7,0,0,1-5-3.24c-1.26-1.1-2.64-2-4-3.06a7.71,7.71,0,0,1-2.19-2.18,3.07,3.07,0,0,0-.69-.65,6.16,6.16,0,0,1-1.09-.92c-1.37-1.88-3.17-3.36-4.55-5.23a24.64,24.64,0,0,0-1.75-1.95,2.68,2.68,0,0,1-.48-.53c-1.24-2.23-3-4.12-4.17-6.41a37.06,37.06,0,0,0-2.1-3.46,32.86,32.86,0,0,1-2.16-4.52,19.76,19.76,0,0,0-1.12-2.37,33.27,33.27,0,0,1-3.16-6.42c-1.24-3.28-2.54-6.54-3.67-9.86-1.28-3.77-2.43-7.58-3.57-11.39-.87-2.89-1.65-5.81-2.42-8.73a27.57,27.57,0,0,1-1.05-5.62,9.32,9.32,0,0,0-.31-1.89c-.25-1-.21-2.08-.52-3s-.51-1.83-.79-2.73a40.24,40.24,0,0,1-1.06-4.16,5.89,5.89,0,0,0-.37-.92,6.75,6.75,0,0,0-1.69,0c-2,.58-4.16.13-6.18,1.16,0,.36,0,.74-.05,1.13-.05,1.75-.15,3.49-.31,5.24-.23,2.7-.21,5.42-.28,8.13a22.59,22.59,0,0,1-.29,3.56,27.38,27.38,0,0,0-.18,4.54c0,1.36,0,2.72-.08,4.07a8.93,8.93,0,0,0,0,2.13,6.67,6.67,0,0,1-.11,1.65c0,.38,0,.77,0,1.15a4.18,4.18,0,0,1,0,1.17,10.35,10.35,0,0,0-.27,3.32,65.56,65.56,0,0,1-.38,7.41c-.27,2.6-.32,5.22-.47,7.84a4.35,4.35,0,0,1-.36,2.14,3.36,3.36,0,0,1-2.74.34,37.83,37.83,0,0,0-5.72-.31c-3.68,0-7.36-.05-11-.19l-5.68-.22c-1.84-.08-3.67-.05-5.51-.05a2,2,0,0,1-1.62-.69A11,11,0,0,1,365,432.34ZM508.18,301.56c2.48,0,4.95-.06,7.42,0a19.93,19.93,0,0,1,5.82,1.21,61.31,61.31,0,0,1,6.93,2.57,6.07,6.07,0,0,1,1,.53c2.78,2,5.59,4,8.3,6.06a17,17,0,0,1,3,3.06,58.52,58.52,0,0,1,6,9.48,25.5,25.5,0,0,1,2.21,6.3c.44,2.1.94,4.2,1.21,6.33.31,2.43.4,4.9.58,7.35,0,.07-.05.15-.17.48a5.19,5.19,0,0,1-.94.21c-1.68.05-3.37-.06-5,.14-2.85.34-5.73.21-8.56.74a14,14,0,0,1-2.15.15c-1.68,0-3.34.18-5,.37a43.44,43.44,0,0,1-5.12,0,4.81,4.81,0,0,1-.71-2.17,12.67,12.67,0,0,0-2.73-6.28,10.39,10.39,0,0,0-6.36-3.93,19.67,19.67,0,0,0-5.46-.47,4.74,4.74,0,0,0-1.19.16,18.6,18.6,0,0,0-8.21,4.64,10.47,10.47,0,0,0-1.53,2.12,18.45,18.45,0,0,0-2.6,5.88,27.26,27.26,0,0,0-.84,5.89.65.65,0,0,1,0,.24c-.43,2,0,4,.09,5.93a18.83,18.83,0,0,0,2.71,8.81,14.53,14.53,0,0,0,7.34,6.26c1.48.54,3.06.84,4.6,1.25,2.71-.11,5.41-.25,7.74-1.95a17.27,17.27,0,0,0,4-3.76,11.61,11.61,0,0,0,1.77-3.6c.14-.46.12-1,.3-1.4a13.53,13.53,0,0,0,.93-5.54,1.52,1.52,0,0,1,1.69-.82,30,30,0,0,0,5.68.06c1.27,0,2.54.12,3.82.18a12.63,12.63,0,0,0,3.57-.22,7.6,7.6,0,0,1,1.91-.05,29,29,0,0,0,5,.13c1.61-.24,3.19-.1,4.77-.24a7.14,7.14,0,0,1,1,.08,22.71,22.71,0,0,1,.14,5.7q-.37,3.31-.78,6.61a5.93,5.93,0,0,1-.31,1.4c-.89,2.22-1.35,4.58-2.18,6.81a36.52,36.52,0,0,1-4,8.65c-.83,1.17-1.51,2.44-2.34,3.62a39.87,39.87,0,0,1-6,6.77c-2.93,2.61-6.46,4.08-9.88,5.78a55.16,55.16,0,0,1-7.38,2.69,20.76,20.76,0,0,1-5.4.9A17.09,17.09,0,0,0,510,407a5.5,5.5,0,0,1-3.08-.13,2.3,2.3,0,0,0-.93-.18,17.48,17.48,0,0,1-3.31-.37A36.22,36.22,0,0,1,490.13,402a17.76,17.76,0,0,1-4.32-3,5.26,5.26,0,0,0-1-.71,36.88,36.88,0,0,1-9.35-8.79,44.44,44.44,0,0,1-5.73-9.35c-.93-2.11-1.61-4.33-2.4-6.5-.29-.82-.56-1.66-.82-2.42-.24-1.39-.46-2.73-.69-4.06a38.89,38.89,0,0,1-.55-6.18,5.74,5.74,0,0,0-.05-1.44,10.86,10.86,0,0,1,0-5.43c.17-.78-.54-1.54-.05-2.33,0-2.32.73-4.56.77-6.89a15.07,15.07,0,0,1,.72-3.48c.48-1.85,1.09-3.67,1.51-5.53a37.85,37.85,0,0,1,2.66-7.14c.74-1.68,1.78-3.18,2.46-4.88a11.11,11.11,0,0,1,1.23-1.75A46.68,46.68,0,0,1,481.1,314c1.48-1.44,3-2.8,4.6-4.17a10.85,10.85,0,0,1,1.42-.88c.67-.42,1.38-.8,2-1.28s1.47-.25,1.85-1c1.15-.55,2.27-1.17,3.46-1.61a49.3,49.3,0,0,0,5.13-1.9,3.21,3.21,0,0,1,.93-.19,4.48,4.48,0,0,0,1.18-.17,8.53,8.53,0,0,1,3.95-.76,4.68,4.68,0,0,0,1.16-.23A8.73,8.73,0,0,1,508.18,301.56Z"/></svg>